<svg width="143" height="60" viewBox="0 0 143 60" fill="none" xmlns="http://www.w3.org/2000/svg">
<path fill-rule="evenodd" clip-rule="evenodd" d="M129.558 24.8689L130.122 24.6155L129.923 8.78251L128.613 8.91411L128.324 7.40664L129.955 7.21031C130.212 7.19987 131.912 8.54856 132.247 8.78092L138.778 13.4993V3.74441H95.56V42.4194H138.778V40.0243C134.174 40.1321 129.595 40.1775 124.988 40.1775C118.341 40.1775 111.698 40.0785 105.059 39.8409C104.192 39.8098 101.681 39.7858 100.074 39.682V39.454L105.141 39.1585C104.632 38.8695 104.335 37.9538 104.157 37.4001C103.372 37.2928 101.672 37.3878 101.283 37.2974C101.268 37.2939 101.249 37.2862 101.236 37.2828C101.224 37.2797 101.204 37.2737 101.19 37.2668C101.087 36.9425 100.789 35.7112 100.814 35.3957L103.542 35.4628C103.382 34.9213 103.119 34.5944 102.638 34.4187C102.179 34.2509 101.504 34.268 101.113 34.0204C100.951 33.7189 100.96 32.6925 100.949 32.2711L103.31 33.1943C103.223 32.5185 102.851 31.5086 102.652 30.8265C102.317 29.6828 101.951 29.8483 100.614 29.8452C100.69 29.0005 101.268 28.859 102.108 28.8804C101.775 28.0342 101.605 28.2636 101.614 27.1528L101.643 22.6432C101.644 22.2121 101.489 22.1168 101.305 21.8427C100.749 21.012 100.338 20.5803 100.463 19.4766C100.538 18.8109 100.649 18.1656 100.759 17.5121C100.867 16.8766 100.982 16.2514 101.12 15.6195C101.288 14.851 101.379 14.5055 102.129 14.2965C102.041 15.4854 101.928 16.6817 101.817 17.8629C101.753 18.5439 101.783 18.9945 102.259 19.2381C102.622 19.4236 103.608 19.3656 104.073 19.3345C104.302 19.2284 104.422 18.608 104.685 18.5051L110.225 18.0332L110.104 18.3983L106.039 19.0065C105.679 19.0507 105.661 18.9891 105.588 19.3217L111.398 19.2567C111.655 19.0333 111.96 18.2443 112.217 18.171C112.544 18.0778 117.164 17.7472 117.716 17.7038C117.63 18.0112 117.675 18.0548 117.383 18.1076C117.181 18.1444 116.965 18.1658 116.758 18.1977C116.362 18.259 115.962 18.3173 115.563 18.3768C114.776 18.4941 113.914 18.6565 113.127 18.7389L113.001 19.2393C114.366 19.203 115.726 19.2079 117.084 19.1856C117.596 19.1771 118.633 19.2202 119.053 19.0647C119.511 18.8953 119.922 18.4901 120.051 17.9798C120.217 17.3189 120.175 14.8057 120.191 13.9547C120.233 11.7659 120.205 11.928 118.072 12.047L106.244 12.7381C105.248 12.7883 103.234 12.8023 102.416 13.0897C102.409 12.7917 102.426 12.5078 102.543 12.2654C102.703 11.9299 102.767 11.9575 103.194 11.9197L113.877 10.955C114.583 10.8926 115.029 10.9712 115.432 10.5571C112.99 10.6102 110.373 10.8927 107.91 11.0328C106.649 11.1047 105.389 11.1926 104.13 11.2747C103.901 11.2896 103.369 11.396 103.235 11.2751C103.149 11.1972 103.138 10.9676 103.199 10.8434C103.272 10.697 103.414 10.7285 103.632 10.7159C104.267 10.6792 104.904 10.6191 105.54 10.5832C105.392 9.87928 104.689 9.64184 104.039 9.58844C104.099 8.986 106.862 7.65654 107.238 7.509C107.569 7.37928 107.882 7.2745 108.222 7.17674C108.398 7.12604 108.597 7.10342 108.736 7.03045C108.904 6.94264 108.976 6.85829 109.19 6.7694C109.675 6.56785 110.894 6.29544 111.462 6.38995C111.45 6.71254 110.893 7.12262 110.758 7.64584C111.272 7.37977 111.203 7.14892 112.484 6.65871C113.657 6.20983 116.164 6.2609 117.522 6.22798C118.137 6.21314 119.735 6.11235 120.245 6.21394C120.084 6.52494 119.871 6.81823 119.778 7.24232C120.36 6.7664 121.091 6.08973 122.178 5.91791C123.476 5.71269 125.933 5.87526 127.243 6.31347C127.631 6.44339 127.911 7.0466 128 7.47593C129.198 13.2214 129.442 18.976 129.558 24.8689ZM91.8203 3.74441H12.873V0H91.8203H95.56H138.778H140.896H142.517V46.1639H140.896H138.778H95.56H91.8203H12.873V42.4194H91.8203V3.74441ZM138.778 14.8804L131.832 10.0277L131.841 11.12L138.778 16.3859V14.8804ZM138.778 16.701L131.864 12.8516L131.959 17.9718L138.778 22.2712V16.701ZM138.778 22.5045L131.99 19.6307L132.075 25.0725L138.778 28.2462V22.5045ZM138.778 28.5897L132.098 26.8712L132.11 28.1974L138.778 29.9336V28.5897ZM138.778 32.7207L136.61 32.3858L136.592 35.1903L138.778 35.3692V34.7094L137.111 34.5576L137.106 33.1643L138.778 33.364V32.7207ZM138.778 37.4294C138.139 37.4223 137.492 37.4283 136.956 37.416C135.902 37.3918 136.173 37.3453 135.62 37.9078C135.157 38.3786 135.281 38.4136 134.891 38.9094L138.778 39.8012V37.4294ZM125.191 16.9994L125.255 16.328C126.05 16.0394 126.067 16.015 126.057 15.0524L124.25 15.7293C124.382 15.6099 124.487 15.4801 124.651 15.3527C124.827 15.2159 124.951 15.0843 125.131 14.9419L126.054 14.1557C126.066 13.713 126.103 11.3384 126.014 11.0816C125.849 10.6052 125.374 10.6267 124.854 10.6271C123.312 10.628 123.657 10.8687 123.657 14.22C123.657 14.7408 123.638 15.297 123.656 15.813C123.674 16.3405 123.956 16.5545 124.475 16.5519C124.398 17.1779 124.11 17.219 123.64 17.4602C123.163 17.7052 122.698 17.6956 122.586 17.1296L122.606 10.0333C122.648 9.34242 123.207 9.50813 123.779 9.54884C124.728 9.61645 126.187 9.70965 127.266 9.83278C127.043 9.14798 126.757 8.56545 126.387 8.21599C125.585 7.45964 124.938 6.9898 123.618 6.92738C122.657 6.88202 122.102 7.24304 121.69 8.0181C121.551 8.27787 121.485 8.45491 121.413 8.7537C121.956 8.43864 122.696 7.61837 124.054 7.55259C124.558 7.52822 124.732 7.66632 125.07 7.7179C124.468 7.7616 124.349 7.68761 123.782 7.91699C123.067 8.20663 122.882 8.53712 122.492 8.87702C122.299 9.04516 122.3 9.08924 122.164 9.26274C121.709 9.84367 121.239 10.4194 121.238 11.2102C121.237 11.6869 121.231 12.1643 121.228 12.6411L121.171 21.4373C121.164 22.7276 121.08 26.1851 121.145 27.2038L125.794 26.0082C125.608 26.1774 125.422 26.2541 125.212 26.3882L121.172 28.9674L121.138 34.0201L123.862 32.8012C123.937 31.6521 124.377 29.0013 125.991 29.395C126.629 29.5505 126.6 29.8135 126.94 30.254L128.231 30.343C128.48 26.2507 128.488 19.7542 128.135 15.4098C127.97 15.5216 127.764 15.6467 127.507 15.7969C126.88 16.163 125.876 16.756 125.191 16.9994ZM106.009 13.7067L105.983 17.2883C104.408 17.2967 103.699 17.5009 102.522 18.2338L102.846 14.3954C103 13.6927 103.532 13.4788 104.17 13.5375L106.009 13.7067ZM129.224 37.9843C129.357 38.3209 129.54 38.5882 129.722 38.8552L126.166 38.835L126.637 37.9361L129.224 37.9843ZM117.226 38.8846L108.89 39.0435C109.003 38.8261 109.168 38.7568 109.267 38.4482L111.789 38.4579L111.807 37.5689C113.007 37.5952 115.197 37.6012 116.372 37.6731C116.75 37.6962 116.49 37.6925 116.892 38.3922C117.009 38.5962 117.127 38.7329 117.226 38.8846ZM123.441 35.8485L123.441 36.7996C123.075 36.777 122.412 36.7767 122.153 36.5885C121.904 36.407 121.673 36.0219 121.581 35.5971L123.441 35.8485ZM118.754 35.5016L116.52 35.5435C116.827 34.4229 117.877 34.4081 119.059 34.1973L118.754 35.5016ZM120.412 9.71216L117.56 9.76525C117.719 9.20047 118.078 8.83945 118.654 8.71253C119.133 8.60696 119.925 8.46786 120.414 8.42621L120.412 9.71216ZM133.873 37.6591C134.206 37.5752 134.28 37.6066 134.499 37.1202C134.634 36.8218 134.723 36.4878 134.786 36.1406C134.913 35.4422 134.941 34.5784 134.785 33.9309C135.389 34.2683 135.305 36.9876 134.669 37.9606C134.329 38.481 133.992 38.1369 133.873 37.6591ZM124.823 37.7067C125.251 37.5607 125.351 37.594 125.586 36.9322C125.73 36.5266 125.811 36.0787 125.856 35.6168C125.947 34.6877 125.889 33.5523 125.616 32.7199C126.444 33.097 126.628 36.6706 125.9 38.0157C125.51 38.7349 125.03 38.3204 124.823 37.7067ZM119.197 33.018L116.526 33.3369C116.737 32.6246 117.692 30.3915 118.11 29.6643C118.282 29.365 118.327 29.3474 118.683 29.1953C119.1 29.0182 119.836 28.8076 120.306 28.7483C120.182 28.9845 119.933 29.2732 119.767 29.5094C119.563 29.7972 119.263 32.551 119.197 33.018ZM116.733 26.4638L104.365 26.8398L104.517 27.2509L116.692 27.7698L116.654 28.9654L104.81 29.506L105.098 30.0751L116.237 30.7612C116.284 31.0385 116.087 31.423 116.031 31.7143L106.668 32.2917C106.677 32.4805 106.841 32.6936 106.927 32.8596L115.462 33.5272C115.24 34.4167 115.232 34.5944 114.298 34.7502C112.25 35.0922 107.427 34.9376 105.338 34.6301C104.745 34.5425 104.775 34.3605 104.489 33.1127C103.857 30.3567 103.642 29.5864 103.62 26.823C103.617 26.4441 103.61 26.051 103.645 25.6745C103.68 25.2899 103.637 25.3136 104.402 25.2363C106.992 24.9741 110.918 24.8971 113.57 24.8903L116.507 24.9305C116.748 24.9638 116.742 25.0006 116.763 25.2785C116.786 25.5772 116.799 26.1882 116.733 26.4638ZM133.015 34.2903L128.488 33.8179C128.597 34.9347 129.21 35.024 130.258 35.141C131.164 35.242 132.078 35.3198 132.988 35.4274L133.012 36.957L128.102 36.7736L128.137 31.4675L131.439 31.9576C132.461 32.1054 132.198 32.013 132.757 32.5655C133.026 32.8314 133.042 32.7898 133.033 33.3084C133.027 33.6353 133.041 33.9645 133.015 34.2903Z" fill="white"/>
<path d="M4.23635 3.74441H10.2909V0H0.140625V46.164H10.2909V42.4195H4.23635V24.6954H8.93773L10.0342 21.0402H4.23635V3.74441Z" fill="white"/>
<path fill-rule="evenodd" clip-rule="evenodd" d="M50.7139 37.4665C49.4674 38.6404 47.8352 39.2273 45.8169 39.2273C43.7987 39.2273 42.1665 38.6404 40.92 37.4665C39.6733 36.2926 39.05 34.7547 39.05 32.8528V13.3282C39.05 11.4263 39.6733 9.88833 40.92 8.71448C42.1665 7.5406 43.7987 6.95369 45.8169 6.95369C47.8352 6.95369 49.4674 7.5406 50.7139 8.71448C51.9606 9.88833 52.584 11.4263 52.584 13.3282V32.8528C52.584 34.7547 51.9606 36.2926 50.7139 37.4665ZM43.8805 34.7473C44.3702 35.2377 45.0155 35.4827 45.8169 35.4827C46.6184 35.4827 47.2637 35.2377 47.7534 34.7473C48.2432 34.2569 48.4882 33.6105 48.4882 32.8083V13.3728C48.4882 12.5704 48.2432 11.924 47.7534 11.4337C47.2637 10.9433 46.6184 10.6982 45.8169 10.6982C45.0155 10.6982 44.3702 10.9433 43.8805 11.4337C43.3907 11.924 43.1457 12.5704 43.1457 13.3728V32.8083C43.1457 33.6105 43.3907 34.2569 43.8805 34.7473Z" fill="white"/>
<path fill-rule="evenodd" clip-rule="evenodd" d="M64.604 30.4905L65.5833 38.6926H69.9463L65.4944 7.48885H58.9498L54.5427 38.6926H58.6829L59.6624 30.4905H64.604ZM64.1587 27.0135H60.1074L61.6655 13.997V11.5453H62.6006V13.997L64.1587 27.0135Z" fill="white"/>
<path fill-rule="evenodd" clip-rule="evenodd" d="M83.992 9.18272C82.7899 8.0535 81.2093 7.48885 79.2506 7.48885H72.2166V38.6926H79.2506C81.2093 38.6926 82.7899 38.1281 83.992 36.9987C85.194 35.8693 85.7948 34.3685 85.7948 32.4965V13.685C85.7948 11.8127 85.194 10.312 83.992 9.18272ZM81.699 13.9079V32.2734C81.699 33.0759 81.4543 33.7223 80.9646 34.2127C80.4748 34.7028 79.8292 34.9481 79.0281 34.9481H76.3124V11.2333H79.0281C79.8292 11.2333 80.4748 11.4784 80.9646 11.9688C81.4543 12.4591 81.699 13.1054 81.699 13.9079Z" fill="white"/>
<path d="M37.1357 34.9481H31.4374V7.48885H27.3416V38.6926H37.1357V34.9481Z" fill="white"/>
<path d="M17.0578 34.9481H24.4923V38.6926H12.6504V35.5723L19.9515 11.2333H12.8729V7.48885H24.359V10.6092L17.0578 34.9481Z" fill="white"/>
<path d="M4.92038 49.7739L3.25635 56.1226V59.8286H1.67836V56.1369L0 49.7739H1.67836L2.36694 53.3073V54.284H2.63951V53.3073L3.32806 49.7739H4.92038ZM10.2365 59.4264C9.81573 59.8095 9.26581 60.0009 8.58683 60.0009C7.90782 60.0009 7.3579 59.8095 6.93713 59.4264C6.5259 59.0338 6.32028 58.5166 6.32028 57.8751V49.7739H7.89825V57.8751C7.89825 58.0856 7.96041 58.2533 8.08474 58.3777C8.20905 58.5024 8.37643 58.5646 8.58683 58.5646C8.7972 58.5646 8.96458 58.5024 9.08888 58.3777C9.22279 58.2533 9.28974 58.0856 9.28974 57.8751V49.7739H10.8677V57.8751C10.8677 58.5166 10.6573 59.0338 10.2365 59.4264ZM15.9712 59.8286L14.7232 55.4331H14.3072V59.8286H12.7292V49.7739H14.3072V54.0256H14.7375L15.9425 49.7739H17.6496L16.0573 54.672L17.7644 59.8286H15.9712ZM25.5146 49.7739V51.2102H24.3957V59.8286H22.8177V51.2102H21.6988V49.7739H25.5146ZM30.8397 59.4264C30.4286 59.8095 29.8833 60.0009 29.2043 60.0009C28.5254 60.0009 27.9755 59.8095 27.5547 59.4264C27.1433 59.0338 26.9376 58.5166 26.9376 57.8751V51.7129C26.9376 51.081 27.1433 50.5735 27.5547 50.1904C27.9755 49.7978 28.5254 49.6016 29.2043 49.6016C29.8833 49.6016 30.4286 49.7978 30.8397 50.1904C31.2605 50.5735 31.4707 51.081 31.4707 51.7129V57.8751C31.4707 58.5166 31.2605 59.0338 30.8397 59.4264ZM28.7023 58.3777C28.8266 58.5024 28.9938 58.5646 29.2043 58.5646C29.4146 58.5646 29.5821 58.5024 29.7063 58.3777C29.8308 58.2533 29.8929 58.0856 29.8929 57.8751V51.7274C29.8929 51.5166 29.8308 51.3492 29.7063 51.2245C29.5821 51.1001 29.4146 51.0379 29.2043 51.0379C28.9938 51.0379 28.8266 51.1001 28.7023 51.2245C28.5778 51.3492 28.5157 51.5166 28.5157 51.7274V57.8751C28.5157 58.0856 28.5778 58.2533 28.7023 58.3777ZM35.6859 49.7739C36.3363 49.7739 36.8622 49.9604 37.2639 50.3341C37.6657 50.7076 37.8665 51.2005 37.8665 51.8136V54.126C37.8665 54.7391 37.6657 55.232 37.2639 55.6057C36.8622 55.9791 36.3363 56.1657 35.6859 56.1657H34.897V59.8286H33.3189V49.7739H35.6859ZM36.2884 54.0398V51.8997C36.2884 51.6889 36.2215 51.5215 36.0876 51.3971C35.9634 51.2724 35.7958 51.2102 35.5856 51.2102H34.897V54.7294H35.5856C35.7958 54.7294 35.9634 54.6672 36.0876 54.5428C36.2215 54.4181 36.2884 54.2507 36.2884 54.0398ZM39.4751 59.8286V49.7739H41.0532V59.8286H39.4751ZM46.6712 59.4264C46.2503 59.8095 45.7005 60.0009 45.0216 60.0009C44.3426 60.0009 43.7928 59.8095 43.372 59.4264C42.9606 59.0338 42.7552 58.5166 42.7552 57.8751V56.3668H44.333V57.8751C44.333 58.0856 44.3951 58.2533 44.5196 58.3777C44.6438 58.5024 44.8113 58.5646 45.0216 58.5646C45.2321 58.5646 45.3993 58.5024 45.5236 58.3777C45.6575 58.2533 45.7244 58.0856 45.7244 57.8751V56.6684C45.7244 56.429 45.6241 56.2088 45.4233 56.0077C45.2224 55.8065 44.9785 55.62 44.6916 55.4477C44.4047 55.2657 44.113 55.0742 43.8167 54.8731C43.5298 54.6623 43.2859 54.3942 43.0851 54.0687C42.8842 53.7335 42.7836 53.3503 42.7836 52.9196V51.7129C42.7836 51.081 42.9894 50.5735 43.4005 50.1904C43.8119 49.7978 44.352 49.6016 45.0216 49.6016C45.6911 49.6016 46.2313 49.7978 46.6427 50.1904C47.0635 50.5735 47.2737 51.081 47.2737 51.7129V53.0631H45.6959V51.6986C45.6959 51.5072 45.6335 51.3492 45.5093 51.2245C45.3851 51.1001 45.2224 51.0379 45.0216 51.0379C44.8207 51.0379 44.658 51.1001 44.5338 51.2245C44.419 51.3395 44.3617 51.4975 44.3617 51.6986V52.7327C44.3617 52.9338 44.4335 53.1255 44.5768 53.3073C44.7204 53.4893 44.9019 53.6473 45.1218 53.7814C45.3421 53.9155 45.5763 54.0735 45.825 54.2552C46.0831 54.4278 46.3221 54.605 46.5421 54.7867C46.762 54.9687 46.9438 55.208 47.0874 55.505C47.2307 55.802 47.3025 56.1323 47.3025 56.4961V57.8751C47.3025 58.5166 47.0919 59.0338 46.6712 59.4264ZM51.9829 49.7739H53.561V59.8286H51.9829V55.4331H50.5914V59.8286H49.0136V49.7739H50.5914V54.0256H51.9829V49.7739ZM61.7684 51.2102H60.0037V54.0256H61.5961V55.4331H60.0037V58.3923H61.7684V59.8286H58.426V49.7739H61.7684V51.2102ZM63.4613 59.8286V49.7739H65.3836L66.646 55.347L66.775 56.453H67.0331L66.8898 55.347V49.7739H68.4676V59.8286H66.5599L65.2975 54.2552L65.1685 53.1492H64.9101L65.0394 54.2552V59.8286H63.4613ZM72.7269 49.7739C73.3771 49.7739 73.903 49.9604 74.3047 50.3341C74.7064 50.7076 74.9073 51.2005 74.9073 51.8136V57.7889C74.9073 58.4017 74.7064 58.8949 74.3047 59.2683C73.903 59.6418 73.3771 59.8286 72.7269 59.8286H70.36V49.7739H72.7269ZM73.3292 57.7028V51.8997C73.3292 51.6889 73.2623 51.5215 73.1284 51.3971C73.0042 51.2724 72.8369 51.2102 72.6264 51.2102H71.9378V58.3923H72.6264C72.8369 58.3923 73.0042 58.3298 73.1284 58.2054C73.2623 58.081 73.3292 57.9133 73.3292 57.7028ZM76.7401 59.8286V49.7739H78.3181V59.8286H76.7401ZM83.1826 59.8286V49.7739H86.0516L86.7114 56.8409V58.2628H86.984V56.8409L87.6439 49.7739H90.4556V59.8286H88.8775V52.3162L88.892 51.5118H88.6336L88.6051 52.3162L87.859 59.8286H85.7792L85.033 52.3162L85.0045 51.5118H84.7461L84.7607 52.3162V59.8286H83.1826ZM96.2383 59.4264C95.8175 59.8095 95.2676 60.0009 94.5884 60.0009C93.9095 60.0009 93.3596 59.8095 92.9388 59.4264C92.5274 59.0338 92.322 58.5166 92.322 57.8751V49.7739H93.8998V57.8751C93.8998 58.0856 93.9622 58.2533 94.0864 58.3777C94.2106 58.5024 94.3781 58.5646 94.5884 58.5646C94.7989 58.5646 94.9662 58.5024 95.0907 58.3777C95.2243 58.2533 95.2912 58.0856 95.2912 57.8751V49.7739H96.8693V57.8751C96.8693 58.5166 96.659 59.0338 96.2383 59.4264ZM101.645 59.8286L101.386 57.3005H100.066L99.8084 59.8286H98.216L99.5357 49.7739H102.003L103.309 59.8286H101.645ZM100.196 55.9791H101.243L100.856 52.1582V51.3395H100.583V52.1582L100.196 55.9791ZM104.761 59.8286V49.7739H107.63L108.29 56.8409V58.2628H108.562V56.8409L109.222 49.7739H112.034V59.8286H110.456V52.3162L110.47 51.5118H110.212L110.183 52.3162L109.438 59.8286H107.357L106.611 52.3162L106.583 51.5118H106.324L106.339 52.3162V59.8286H104.761ZM113.929 59.8286V49.7739H116.798L117.458 56.8409V58.2628H117.73V56.8409L118.39 49.7739H121.202V59.8286H119.624V52.3162L119.638 51.5118H119.38L119.351 52.3162L118.605 59.8286H116.525L115.779 52.3162L115.751 51.5118H115.493L115.507 52.3162V59.8286H113.929ZM126.956 59.4264C126.544 59.8095 125.999 60.0009 125.321 60.0009C124.641 60.0009 124.091 59.8095 123.671 59.4264C123.26 59.0338 123.054 58.5166 123.054 57.8751V51.7129C123.054 51.081 123.26 50.5735 123.671 50.1904C124.091 49.7978 124.641 49.6016 125.321 49.6016C125.999 49.6016 126.544 49.7978 126.956 50.1904C127.377 50.5735 127.587 51.081 127.587 51.7129V57.8751C127.587 58.5166 127.377 59.0338 126.956 59.4264ZM124.818 58.3777C124.943 58.5024 125.11 58.5646 125.321 58.5646C125.531 58.5646 125.698 58.5024 125.823 58.3777C125.947 58.2533 126.009 58.0856 126.009 57.8751V51.7274C126.009 51.5166 125.947 51.3492 125.823 51.2245C125.698 51.1001 125.531 51.0379 125.321 51.0379C125.11 51.0379 124.943 51.1001 124.818 51.2245C124.694 51.3492 124.632 51.5166 124.632 51.7274V57.8751C124.632 58.0856 124.694 58.2533 124.818 58.3777ZM133.165 59.4264C132.744 59.8095 132.194 60.0009 131.515 60.0009C130.836 60.0009 130.286 59.8095 129.866 59.4264C129.454 59.0338 129.249 58.5166 129.249 57.8751V56.3668H130.827V57.8751C130.827 58.0856 130.889 58.2533 131.013 58.3777C131.137 58.5024 131.305 58.5646 131.515 58.5646C131.725 58.5646 131.893 58.5024 132.017 58.3777C132.151 58.2533 132.218 58.0856 132.218 57.8751V56.6684C132.218 56.429 132.118 56.2088 131.917 56.0077C131.716 55.8065 131.472 55.62 131.185 55.4477C130.898 55.2657 130.607 55.0742 130.31 54.8731C130.023 54.6623 129.78 54.3942 129.579 54.0687C129.378 53.7335 129.277 53.3503 129.277 52.9196V51.7129C129.277 51.081 129.483 50.5735 129.894 50.1904C130.306 49.7978 130.846 49.6016 131.515 49.6016C132.185 49.6016 132.725 49.7978 133.136 50.1904C133.557 50.5735 133.767 51.081 133.767 51.7129V53.0631H132.189V51.6986C132.189 51.5072 132.127 51.3492 132.003 51.2245C131.879 51.1001 131.716 51.0379 131.515 51.0379C131.314 51.0379 131.152 51.1001 131.027 51.2245C130.913 51.3395 130.855 51.4975 130.855 51.6986V52.7327C130.855 52.9338 130.927 53.1255 131.07 53.3073C131.214 53.4893 131.396 53.6473 131.615 53.7814C131.836 53.9155 132.07 54.0735 132.319 54.2552C132.577 54.4278 132.816 54.605 133.036 54.7867C133.256 54.9687 133.437 55.208 133.581 55.505C133.724 55.802 133.796 56.1323 133.796 56.4961V57.8751C133.796 58.5166 133.586 59.0338 133.165 59.4264ZM135.507 59.8286V49.7739H137.085V59.8286H135.507ZM140.379 58.3923H142.574V59.8286H138.687V58.6219L140.853 51.2102H138.758V49.7739H142.531V50.9803L140.379 58.3923Z" fill="white"/>
</svg>
